<?xml version="1.0" encoding="utf-8" ?>
<svg xmlns="http://www.w3.org/2000/svg" xmlns:xlink="http://www.w3.org/1999/xlink" width="1024" height="1024">
	<path fill="white" transform="scale(2 2)" d="M0 0L0 512L512 512L512 0L0 0Z"/>
	<path fill="#EA580C" transform="scale(2 2)" d="M75.5111 316.056C75.9966 309.758 75.7035 303.274 75.7014 296.957L75.6938 126.405C75.6927 110.327 74.0946 95.2316 95.2415 94.222C97.0408 94.128 98.9242 94.2751 100.733 94.2804L405.042 94.2941C413.592 94.291 423.681 92.5286 430.672 98.6609C438.492 105.521 436.541 115.535 436.531 124.821L436.531 296.214C436.531 302.708 436.288 309.307 436.723 315.786C430.492 316.068 424.199 315.904 417.96 315.899L90.5989 315.895C85.5832 315.895 80.518 315.752 75.5111 316.056ZM239.186 142.365C226.997 149.209 215.1 156.714 203.164 163.991L169.918 184.085C163.153 188.254 152.063 193.678 146.535 198.226C140.242 203.403 138.552 212.767 142.602 219.869C146.653 226.972 158.504 232.317 165.289 236.442L235.064 277.977C248.983 286.262 253.343 292.269 269.142 283.026L338.411 241.309C345.637 236.96 359.752 230.022 365.631 225.153C371.83 220.02 373.991 210.074 369.851 203.03C365.807 196.151 352.612 190.186 345.889 186.185L287.825 151.437C282.851 148.41 278.027 145.116 272.871 142.4L272.885 148.275C272.893 164.467 273.169 180.71 272.848 196.894C279.383 200.59 285.854 204.393 292.62 207.654C292.316 199.141 292.298 190.404 292.686 181.897C297.66 184.471 302.462 187.433 307.29 190.273L336.382 207.659C338.508 208.918 340.658 210.286 342.903 211.314C333.39 216.868 323.789 222.242 314.324 227.883C307.418 231.999 299.422 237.287 292.294 240.696C292.455 237.533 293.095 228.616 291.018 226.196C289.704 224.666 287.011 224.263 285.302 223.227C280.826 224.746 276.467 226.755 272.241 228.861C272.009 237.687 272.564 246.607 271.97 255.409C267.294 258.117 260.505 262.896 255.953 264.882C250.307 261.787 244.975 258.068 239.356 254.904C239.911 246.472 239.728 237.878 239.961 229.412C235.948 226.903 231.592 223.983 226.963 222.852C217.407 225.496 219.913 232.555 219.729 240.332C216.439 239.493 213.497 237.036 210.622 235.313C199.198 228.467 179.551 219.03 169.78 210.93L201.101 192.789C206.632 189.542 214.321 184.193 220.06 182.113C220.114 190.538 220.004 198.993 219.75 207.413C226.558 204.498 232.745 200.188 239.413 196.97C239.707 191.442 239.925 143.297 239.35 142.401L239.186 142.365Z"/>
	<path fill="#EA580C" transform="scale(2 2)" d="M75.6955 336.628L83.1167 336.538C93.4894 336.739 103.889 336.596 114.264 336.596L400.974 336.595C412.916 336.595 424.939 336.285 436.867 336.814C435.801 346.255 438.62 353.022 428.338 358.553C422.023 361.438 406.624 360.154 399.517 360.153L105.154 360.157C84.3581 360.16 73.7282 361.621 75.6955 336.628Z"/>
	<path fill="#EA580C" transform="scale(2 2)" d="M419.175 397.189C401.742 415.862 393.277 414.383 370.364 414.365L136.809 414.367C106.321 414.38 105.409 410.162 83.928 387.612C81.3332 384.889 78.1842 382.199 76.1154 379.069C78.2935 379.041 80.5667 379.417 82.7452 379.614C97.156 380.908 111.693 380.256 126.14 380.257L417.268 380.266C423.395 380.266 429.602 380.332 435.686 379.478C430.481 385.629 424.637 391.263 419.175 397.189Z"/>
</svg>
